Coordinates
version=1
nRows=8
nColumns=36
inDegrees=yes

Units are S.I. units (second, meters, Newtons, ...)
If the header above contains a line with 'inDegrees', this indicates whether rotational values are in degrees (yes) or radians (no).

endheader
time	pelvis_tilt	pelvis_list	pelvis_rotation	pelvis_tx	pelvis_ty	pelvis_tz	hip_flexion_r	hip_adduction_r	hip_rotation_r	knee_angle_r	knee_angle_r_beta	ankle_angle_r	subtalar_angle_r	mtp_angle_r	hip_flexion_l	hip_adduction_l	hip_rotation_l	knee_angle_l	knee_angle_l_beta	ankle_angle_l	subtalar_angle_l	mtp_angle_l	lumbar_extension	lumbar_bending	lumbar_rotation	arm_flex_r	arm_add_r	arm_rot_r	elbow_flex_r	pro_sup_r	arm_flex_l	arm_add_l	arm_rot_l	elbow_flex_l	pro_sup_l
      1.34166670	     -3.09239653	      0.36940566	     -0.26203781	     -0.84912093	      1.25811167	     -0.09276894	     -1.23181478	      1.30263629	      3.55938985	      1.07075634	      0.01868822	      1.05112799	    -14.00561282	     -7.49999987	     -1.38686333	      1.26133375	      7.81416090	      1.32165354	      0.02306721	      5.36703549	     -7.80146627	     -7.49999987	     -9.28282846	      1.01855850	      0.01189840	     10.51075498	     -8.07436411	     22.75946689	     29.48839766	     66.74115079	      8.92238586	     -9.16267849	     24.62170586	     30.46908479	     72.19044036
      1.34583330	     -3.07834922	      0.37137904	     -0.23575009	     -0.84876258	      1.25588160	     -0.09290597	     -1.29347139	      1.25563427	      3.56448445	      1.05232397	      0.01836652	      1.15613340	    -13.90189229	     -7.49999987	     -1.42604024	      1.28442418	      7.87041433	      1.27937840	      0.02232937	      5.44671481	     -7.86146414	     -7.49999987	     -9.28734413	      1.05714525	     -0.00829847	     10.52853271	     -8.08674970	     22.99354513	     29.57831161	     65.33305159	      8.93747722	     -9.13538873	     25.04030871	     30.53308649	     69.68458920
      1.35000000	     -3.08360266	      0.36131477	     -0.18102657	     -0.84961511	      1.25256243	     -0.09140286	     -1.31438458	      1.25992133	      3.76080808	      1.02656724	      0.01791698	      0.87427409	    -14.55972836	     -7.49999987	     -1.40666531	      1.29695198	      7.92897856	      1.31893044	      0.02301968	      5.51447193	     -8.00762455	     -7.49999987	     -9.28917468	      1.09189717	      0.01721678	     10.54015763	     -8.20427782	     23.19835442	     29.68924541	     66.68168385	      9.03976803	     -9.15809866	     25.35251809	     30.49651985	     71.91910575
      1.35416670	     -3.24219517	      0.35486129	     -0.14584625	     -0.84932587	      1.25146150	     -0.09045631	     -1.14864115	      1.29208418	      3.70371298	      1.04542604	      0.01824613	      0.90386501	    -14.51887326	     -7.49999987	     -1.23394447	      1.27924160	      7.99624048	      1.36157493	      0.02376397	      5.57160191	     -8.00613457	     -7.49999987	     -9.16313298	      1.07519154	      0.02090016	     10.40327023	     -8.02315416	     22.06306416	     29.78295904	     70.70140478	      8.95877878	     -9.05372964	     23.75189730	     30.49716430	     78.93531334
      1.35833330	     -3.33055492	      0.34409987	     -0.18864345	     -0.85111604	      1.25282937	     -0.09063546	     -0.99791709	      1.31853671	      3.93511165	      1.03265675	      0.01802326	      0.75386652	    -15.06141135	     -7.49999987	     -1.11472354	      1.25791975	      7.92966076	      1.40701529	      0.02455705	      5.72419204	     -7.93707519	     -7.49999987	     -9.16274292	      1.07230290	      0.07464658	     10.46015201	     -8.08071694	     22.46694020	     30.04266000	     69.71047552	      8.99909233	     -9.12551909	     24.00652901	     30.71668771	     77.17415959
      1.36250000	     -3.42537224	      0.36288204	     -0.11433687	     -0.84940842	      1.25111760	     -0.09229450	     -0.88833876	      1.27986392	      3.99520505	      0.99502580	      0.01736648	      0.84519441	    -14.98883711	     -7.49999987	     -0.98826951	      1.28300898	      8.14185876	      1.46917819	      0.02564200	      5.69615311	     -8.22369482	     -7.49999987	     -9.06996438	      1.10343627	      0.05764657	     10.46836933	     -8.16172087	     22.91826773	     30.12675081	     68.39900204	      9.02381549	     -9.14454323	     24.57307763	     30.82526210	     75.02893665
      1.36666670	     -3.60288721	      0.35933658	     -0.10928972	     -0.84836171	      1.25313216	     -0.09207086	     -0.69738435	      1.29055194	      4.19208814	      0.98221135	      0.01714282	      0.72428264	    -15.21043377	     -7.49999987	     -0.79023246	      1.25805673	      8.09746627	      1.50079636	      0.02619384	      5.70868684	     -8.25188576	     -7.49999987	     -8.84172984	      1.10367434	      0.12436931	     10.34387538	     -8.08331226	     22.47722407	     30.09803452	     70.40266153	      8.98879091	     -9.02254262	     23.85565506	     30.70996621	     78.58694763
      1.37083330	     -3.64560403	      0.37688875	     -0.03060634	     -0.84857342	      1.25315528	     -0.09272874	     -0.67831170	      1.26375696	      4.18341567	      0.94894884	      0.01656228	      0.78481920	    -15.10321139	     -7.49999987	     -0.74063939	      1.27468962	      8.23302149	      1.50394316	      0.02624876	      5.63178569	     -8.53328257	     -7.49999987	     -8.79855872	      1.13132072	      0.06810495	     10.32844635	     -8.15627551	     22.93337815	     30.26596635	     68.57586328	      8.98499556	     -9.04782882	     24.43434324	     30.86142877	     75.55797617
